<?xml version="1.0" standalone="no"?>
<!DOCTYPE svg PUBLIC "-//W3C//DTD SVG 20010904//EN"
 "http://www.w3.org/TR/2001/REC-SVG-20010904/DTD/svg10.dtd">
<svg version="1.0" xmlns="http://www.w3.org/2000/svg"
 width="1024.000000pt" height="1024.000000pt" viewBox="0 0 1024.000000 1024.000000"
 preserveAspectRatio="xMidYMid meet">

<g transform="translate(0.000000,1024.000000) scale(0.100000,-0.100000)"
fill="#000000" stroke="none">
<path d="M0 5120 l0 -5120 5120 0 5120 0 0 5120 0 5120 -5120 0 -5120 0 0
-5120z m4967 3053 c17 -13 39 -40 48 -60 31 -66 -8 -187 -66 -204 -13 -3 -74
-12 -134 -18 -229 -23 -517 -113 -751 -235 -237 -124 -379 -226 -570 -409
-258 -248 -472 -588 -578 -922 -27 -83 -55 -166 -62 -185 l-15 -35 -117 6
c-64 4 -125 10 -135 14 -39 16 -33 84 25 285 54 182 115 325 205 477 24 40 43
75 43 78 0 3 5 11 11 18 5 7 43 60 82 119 40 58 117 157 172 218 104 117 314
316 375 355 19 12 42 30 49 39 33 40 332 204 546 300 165 74 359 128 590 165
215 34 229 34 282 -6z m578 16 c382 -57 808 -241 1133 -491 288 -220 570 -565
745 -910 88 -174 139 -308 184 -490 32 -127 34 -140 20 -162 -11 -17 -29 -25
-63 -30 -68 -9 -144 -7 -186 4 -35 10 -39 15 -53 68 -88 315 -150 462 -291
677 -208 319 -442 548 -766 748 -246 152 -609 270 -938 305 -61 7 -65 9 -95
50 -42 61 -42 129 0 189 17 24 41 47 55 52 28 10 146 6 255 -10z m-178 -464
c260 -35 483 -101 696 -209 210 -106 381 -226 363 -254 -3 -5 -22 -13 -43 -17
-65 -12 -175 -75 -239 -137 -61 -59 -110 -136 -134 -213 -7 -22 -16 -44 -20
-48 -3 -4 -23 17 -43 47 -96 144 -263 284 -442 371 -220 107 -293 116 -969
115 -281 0 -518 1 -526 2 -35 7 -14 27 102 97 108 65 191 103 345 157 75 26
337 83 424 93 138 14 359 12 486 -4z m-1615 -561 c8 -63 10 -1397 2 -1485 l-7
-66 -381 3 -381 3 3 113 c10 404 114 696 401 1127 44 67 330 363 345 358 6 -2
14 -26 18 -53z m1410 36 c359 -49 667 -316 744 -645 27 -114 27 -400 0 -500
-23 -86 -73 -187 -119 -243 l-35 -42 -29 24 c-45 37 -86 55 -180 77 -132 30
-130 29 -111 43 33 24 99 133 118 194 39 127 20 307 -47 436 -53 102 -159 206
-255 250 -129 60 -183 66 -593 66 l-365 0 0 -539 0 -539 26 -6 c14 -4 213 -4
442 0 399 6 421 5 515 -15 294 -62 439 -124 556 -236 85 -82 124 -141 183
-277 140 -325 106 -695 -88 -958 -131 -179 -304 -293 -549 -362 -53 -15 -113
-21 -245 -25 -174 -5 -611 10 -643 23 -15 5 -17 26 -17 171 l0 165 363 -7
c345 -6 366 -6 440 14 116 31 191 74 283 166 87 86 130 159 159 270 19 75 19
141 -1 245 -19 102 -38 151 -83 215 -99 139 -244 227 -421 254 -36 5 -117 12
-180 16 -63 3 -200 10 -305 17 -108 6 -244 8 -315 4 l-125 -8 3 -884 c2 -828
1 -885 -15 -891 -18 -7 -282 124 -318 158 -19 19 -20 33 -20 359 0 333 0 340
-20 340 -11 0 -83 5 -160 11 -77 5 -210 10 -296 10 -99 0 -164 5 -179 12 -13
7 -46 48 -73 92 -41 66 -51 90 -54 135 -6 87 -11 85 199 84 101 0 287 -6 413
-14 272 -16 282 -13 309 67 9 25 16 59 16 73 0 15 9 53 20 85 26 76 25 83 -6
46 -38 -45 -75 -51 -253 -41 -86 5 -331 12 -546 15 -358 5 -621 16 -767 31
-50 5 -62 11 -92 44 -81 90 -85 132 -18 199 43 42 55 49 98 53 27 2 256 1 509
-4 253 -4 471 -6 485 -3 23 5 96 0 317 -21 l72 -7 12 29 c9 22 12 244 10 896
-2 477 0 871 2 875 8 12 1139 15 1229 3z m1395 -166 c88 -42 143 -128 143
-223 0 -89 -30 -160 -91 -215 -141 -127 -352 -75 -420 103 -52 137 -6 270 116
334 81 42 164 42 252 1z m394 -369 c90 -149 209 -452 209 -533 l0 -25 -182 6
c-99 4 -255 7 -345 7 l-163 0 0 105 c0 119 -12 103 110 146 54 19 78 36 146
104 84 82 127 150 139 221 14 76 23 72 86 -31z m-1875 2 c121 -35 239 -128
291 -230 22 -44 27 -68 31 -157 4 -94 2 -110 -19 -154 -44 -95 -129 -154 -250
-175 -38 -6 -186 -11 -356 -11 -256 0 -292 2 -297 16 -3 9 -6 178 -6 376 l0
360 278 -5 c206 -3 290 -8 328 -20z m1070 -202 c53 -47 169 -112 222 -124 29
-7 55 -17 58 -23 3 -5 12 -45 20 -90 10 -60 11 -84 3 -94 -9 -11 -50 -14 -178
-14 l-166 0 0 185 c0 102 3 185 6 185 3 0 19 -11 35 -25z m-3371 -545 l27 -10
-4 -124 c-2 -89 -7 -128 -18 -141 -13 -15 -30 -17 -158 -13 -97 2 -145 7 -150
15 -9 15 4 191 18 244 l11 39 124 0 c68 0 136 -5 150 -10z m4972 -37 c52 -57
57 -142 12 -208 -22 -32 -23 -32 -128 -39 -121 -7 -1504 1 -1568 10 -53 6 -93
37 -93 71 0 23 45 119 73 153 36 45 33 45 406 50 196 3 561 4 811 2 l455 -3
32 -36z m-23 -461 c10 -9 27 -34 37 -54 17 -33 18 -42 6 -76 -7 -21 -27 -59
-45 -84 l-31 -46 -443 -7 c-244 -4 -534 -5 -645 -3 l-202 3 -57 41 c-59 41
-129 129 -139 174 -10 42 15 64 82 70 32 3 364 4 738 2 618 -3 682 -5 699 -20z
m-2617 -162 c129 -13 198 -37 272 -94 89 -69 123 -116 147 -206 9 -33 12 -39
13 -20 l2 25 11 -25 c5 -14 10 -56 10 -95 0 -56 -6 -84 -28 -136 -43 -97 -96
-180 -112 -174 -7 2 -11 1 -8 -4 9 -15 -22 -33 -44 -26 -12 4 -27 1 -36 -6 -8
-6 -18 -9 -21 -5 -4 4 -2 10 4 14 19 12 65 84 58 91 -4 3 -14 -3 -23 -14 -22
-26 -56 -47 -109 -68 -39 -15 -43 -15 -43 -1 0 14 -3 14 -15 4 -8 -7 -15 -19
-15 -26 0 -8 -3 -14 -7 -15 -5 0 -115 -2 -246 -3 -131 -2 -241 -7 -245 -11 -4
-4 16 -4 43 0 40 5 48 4 38 -6 -12 -12 -96 -13 -193 -4 -14 1 -40 3 -57 4
l-33 1 0 412 0 411 268 -6 c147 -4 313 -11 369 -17z m1970 -294 c15 -15 2 -70
-45 -191 -79 -198 -181 -364 -349 -562 -191 -226 -473 -434 -758 -559 -78 -34
-274 -99 -358 -118 -118 -28 -341 -56 -437 -56 -174 1 -486 44 -611 85 -52 18
-59 32 -59 131 l0 54 38 0 c20 0 156 -7 302 -16 458 -28 630 -4 878 120 283
142 526 437 591 717 11 46 25 152 31 234 6 83 14 153 18 157 4 4 43 8 87 10
142 5 666 1 672 -6z m460 -14 c50 -36 51 -60 8 -191 -75 -228 -178 -433 -320
-636 -84 -120 -102 -142 -244 -291 -159 -167 -290 -280 -456 -396 -71 -50
-115 -77 -259 -157 -61 -35 -303 -130 -419 -165 -62 -18 -162 -43 -222 -55
-61 -12 -132 -25 -160 -31 -113 -22 -172 -23 -201 -5 -44 25 -67 63 -72 115
-5 56 24 131 60 153 12 8 64 20 113 26 117 15 225 37 300 60 33 10 87 27 120
36 240 70 560 251 794 449 117 98 274 275 378 424 151 216 203 316 268 512 21
63 45 125 53 138 20 30 63 42 152 39 60 -2 81 -7 107 -25z m-4698 -48 c50 -10
78 -49 158 -214 104 -215 172 -333 260 -453 199 -266 368 -411 749 -641 192
-116 587 -250 799 -272 88 -8 112 -17 153 -57 77 -74 89 -156 30 -219 l-29
-31 -87 6 c-461 30 -932 211 -1330 509 -313 235 -535 482 -715 795 -69 120
-194 401 -197 443 -5 58 1 82 26 105 34 32 108 44 183 29z m2216 -444 c17 -6
13 -9 -20 -15 -22 -4 -48 -9 -59 -12 -12 -3 -16 -1 -12 6 4 6 23 11 43 11 20
0 34 2 31 5 -3 3 -59 2 -126 -3 -67 -4 -118 -4 -114 0 6 6 53 10 202 15 19 1
44 -2 55 -7z m68 3 c-7 -2 -21 -2 -30 0 -10 3 -4 5 12 5 17 0 24 -2 18 -5z
m-1426 -315 c-2 -29 -3 -6 -3 52 0 58 1 81 3 53 2 -29 2 -77 0 -105z m20 60
c-2 -18 -4 -4 -4 32 0 36 2 50 4 33 2 -18 2 -48 0 -65z m-125 7 c-2 -14 -8
-22 -13 -19 -13 8 -11 32 4 37 6 3 13 6 13 6 1 1 -1 -10 -4 -24z m-44 -20 c-3
-3 -9 2 -12 12 -6 14 -5 15 5 6 7 -7 10 -15 7 -18z m169 -72 c-3 -10 -5 -4 -5
12 0 17 2 24 5 18 2 -7 2 -21 0 -30z m933 -1793 l0 -300 -60 0 -60 0 0 295 0
294 58 4 c31 2 58 4 60 5 1 1 2 -133 2 -298z m977 271 c10 -5 35 -19 56 -31
l38 -22 -31 -19 c-17 -11 -35 -30 -42 -43 l-11 -25 -36 20 c-23 12 -55 19 -93
19 -51 0 -60 -3 -75 -26 -25 -38 -9 -54 89 -90 119 -43 149 -62 176 -114 60
-117 -34 -238 -194 -248 -66 -4 -114 11 -200 65 -45 29 -55 43 -30 43 8 0 28
16 45 36 l30 37 48 -23 c56 -27 141 -37 172 -21 23 13 28 52 9 69 -7 5 -43 19
-80 31 -37 11 -82 28 -100 37 -135 68 -137 202 -7 295 50 36 178 41 236 10z
m895 -226 c-9 -189 -16 -219 -66 -273 -32 -36 -92 -63 -152 -69 -95 -10 -191
43 -237 131 -22 42 -22 43 -30 351 l-3 105 63 0 63 0 0 -176 c0 -141 3 -183
16 -210 30 -64 120 -94 172 -58 46 32 52 60 52 258 l0 185 63 3 62 3 3 -35 c1
-19 -1 -116 -6 -215z m-2700 58 c2 -129 8 -196 17 -214 40 -79 178 -78 211 2
8 17 14 64 15 103 0 39 2 122 3 184 l2 112 61 0 60 0 -3 -212 c-3 -213 -3
-213 -31 -261 -72 -123 -232 -159 -354 -81 -92 60 -113 131 -113 376 l0 178
64 0 64 0 4 -187z m3163 143 c17 -18 80 -95 140 -171 l110 -139 3 39 c2 22 2
102 0 177 l-3 138 63 0 62 0 0 -279 c0 -154 3 -287 6 -295 5 -14 -3 -16 -54
-15 l-61 2 -41 56 c-73 100 -174 233 -202 265 l-27 31 2 -70 c1 -38 1 -118 0
-177 l-3 -108 -55 0 -55 0 0 294 0 294 43 -5 c31 -4 50 -13 72 -37z m-3750 15
c84 -38 134 -129 120 -219 -7 -46 -29 -74 -89 -117 -35 -25 -33 -30 51 -141
29 -39 53 -75 53 -80 0 -5 -34 -8 -75 -6 -73 3 -76 4 -92 35 -8 18 -31 56 -50
85 l-35 52 -54 0 -54 0 0 -84 c0 -47 -3 -86 -7 -89 -5 -2 -34 -1 -65 1 l-58 4
0 289 0 289 158 0 c130 0 164 -4 197 -19z"/>
<path d="M5521 4894 c0 -11 3 -14 6 -6 3 7 2 16 -1 19 -3 4 -6 -2 -5 -13z"/>
<path d="M5492 4775 c0 -16 2 -22 5 -12 2 9 2 23 0 30 -3 6 -5 -1 -5 -18z"/>
<path d="M5454 4724 c4 -15 -1 -28 -17 -45 -28 -28 -51 -69 -40 -69 15 1 43
27 43 40 0 7 3 10 7 7 4 -4 13 7 20 24 11 26 11 33 -3 47 -15 15 -16 14 -10
-4z"/>
<path d="M5370 4520 c0 -5 7 -10 15 -10 8 0 15 5 15 10 0 6 -7 10 -15 10 -8 0
-15 -4 -15 -10z"/>
<path d="M3010 2401 l0 -94 88 7 c102 7 122 22 122 91 0 63 -22 78 -125 84
l-85 6 0 -94z"/>
</g>
</svg>
